<mxfile host="app.diagrams.net" modified="2024-04-06T08:25:14.316Z" agent="Mozilla/5.0 (Windows NT 10.0; Win64; x64) AppleWebKit/537.36 (KHTML, like Gecko) Chrome/123.0.0.0 Safari/537.36" etag="jFV7fJzNVxAUaHr8VWRq" version="24.2.2" type="github">
  <diagram name="第 1 页" id="w69kXtEQ72CvNl1EAY8m">
    <mxGraphModel dx="685" dy="445" grid="1" gridSize="10" guides="1" tooltips="1" connect="1" arrows="1" fold="1" page="1" pageScale="1" pageWidth="1169" pageHeight="827" math="0" shadow="0">
      <root>
        <mxCell id="0" />
        <mxCell id="1" parent="0" />
        <mxCell id="kTw_8mOHPsh5-s0pTxRM-4" style="edgeStyle=orthogonalEdgeStyle;rounded=0;orthogonalLoop=1;jettySize=auto;html=1;" edge="1" parent="1" source="kTw_8mOHPsh5-s0pTxRM-2" target="kTw_8mOHPsh5-s0pTxRM-3">
          <mxGeometry relative="1" as="geometry" />
        </mxCell>
        <mxCell id="kTw_8mOHPsh5-s0pTxRM-2" value="开始" style="strokeWidth=2;html=1;shape=mxgraph.flowchart.start_1;whiteSpace=wrap;" vertex="1" parent="1">
          <mxGeometry x="520" y="200" width="100" height="60" as="geometry" />
        </mxCell>
        <mxCell id="kTw_8mOHPsh5-s0pTxRM-3" value="接收统一执行接口层传来的参数" style="rounded=1;whiteSpace=wrap;html=1;absoluteArcSize=1;arcSize=14;strokeWidth=2;" vertex="1" parent="1">
          <mxGeometry x="470" y="290" width="200" height="60" as="geometry" />
        </mxCell>
        <mxCell id="kTw_8mOHPsh5-s0pTxRM-16" style="edgeStyle=orthogonalEdgeStyle;rounded=0;orthogonalLoop=1;jettySize=auto;html=1;entryX=0.5;entryY=0;entryDx=0;entryDy=0;" edge="1" parent="1" source="kTw_8mOHPsh5-s0pTxRM-5" target="kTw_8mOHPsh5-s0pTxRM-6">
          <mxGeometry relative="1" as="geometry">
            <Array as="points">
              <mxPoint x="430" y="420" />
              <mxPoint x="430" y="570" />
            </Array>
          </mxGeometry>
        </mxCell>
        <mxCell id="kTw_8mOHPsh5-s0pTxRM-30" value="是" style="edgeLabel;html=1;align=center;verticalAlign=middle;resizable=0;points=[];" vertex="1" connectable="0" parent="kTw_8mOHPsh5-s0pTxRM-16">
          <mxGeometry x="-0.6048" y="-1" relative="1" as="geometry">
            <mxPoint as="offset" />
          </mxGeometry>
        </mxCell>
        <mxCell id="kTw_8mOHPsh5-s0pTxRM-5" value="type=’1‘？" style="strokeWidth=2;html=1;shape=mxgraph.flowchart.decision;whiteSpace=wrap;" vertex="1" parent="1">
          <mxGeometry x="520" y="370" width="100" height="100" as="geometry" />
        </mxCell>
        <mxCell id="kTw_8mOHPsh5-s0pTxRM-6" value="调用dll动态链接库类型&lt;div&gt;城市雨洪模型并返回结果&lt;/div&gt;" style="rounded=1;whiteSpace=wrap;html=1;absoluteArcSize=1;arcSize=14;strokeWidth=2;" vertex="1" parent="1">
          <mxGeometry x="360" y="570" width="140" height="70" as="geometry" />
        </mxCell>
        <mxCell id="kTw_8mOHPsh5-s0pTxRM-7" value="调用exe可执行文件类型&lt;div&gt;城市雨洪模型&lt;span style=&quot;background-color: initial;&quot;&gt;并返回结果&lt;/span&gt;&lt;/div&gt;" style="rounded=1;whiteSpace=wrap;html=1;absoluteArcSize=1;arcSize=14;strokeWidth=2;" vertex="1" parent="1">
          <mxGeometry x="530" y="570" width="160" height="70" as="geometry" />
        </mxCell>
        <mxCell id="kTw_8mOHPsh5-s0pTxRM-8" style="edgeStyle=orthogonalEdgeStyle;rounded=0;orthogonalLoop=1;jettySize=auto;html=1;entryX=0.5;entryY=0;entryDx=0;entryDy=0;entryPerimeter=0;" edge="1" parent="1" source="kTw_8mOHPsh5-s0pTxRM-3" target="kTw_8mOHPsh5-s0pTxRM-5">
          <mxGeometry relative="1" as="geometry" />
        </mxCell>
        <mxCell id="kTw_8mOHPsh5-s0pTxRM-11" value="调用具体类别&lt;div&gt;雨洪模型结束&lt;/div&gt;" style="strokeWidth=2;html=1;shape=mxgraph.flowchart.terminator;whiteSpace=wrap;" vertex="1" parent="1">
          <mxGeometry x="560" y="700" width="100" height="60" as="geometry" />
        </mxCell>
        <mxCell id="kTw_8mOHPsh5-s0pTxRM-18" value="调用python脚本类型&lt;div&gt;城市雨洪模型&lt;span style=&quot;background-color: initial;&quot;&gt;并返回结果&lt;/span&gt;&lt;/div&gt;" style="rounded=1;whiteSpace=wrap;html=1;absoluteArcSize=1;arcSize=14;strokeWidth=2;" vertex="1" parent="1">
          <mxGeometry x="725" y="570" width="150" height="70" as="geometry" />
        </mxCell>
        <mxCell id="kTw_8mOHPsh5-s0pTxRM-23" style="edgeStyle=orthogonalEdgeStyle;rounded=0;orthogonalLoop=1;jettySize=auto;html=1;entryX=0.5;entryY=0;entryDx=0;entryDy=0;" edge="1" parent="1" source="kTw_8mOHPsh5-s0pTxRM-20" target="kTw_8mOHPsh5-s0pTxRM-7">
          <mxGeometry relative="1" as="geometry">
            <mxPoint x="605" y="580" as="targetPoint" />
            <Array as="points">
              <mxPoint x="610" y="500" />
            </Array>
          </mxGeometry>
        </mxCell>
        <mxCell id="kTw_8mOHPsh5-s0pTxRM-32" value="是" style="edgeLabel;html=1;align=center;verticalAlign=middle;resizable=0;points=[];" vertex="1" connectable="0" parent="kTw_8mOHPsh5-s0pTxRM-23">
          <mxGeometry x="-0.6444" y="-1" relative="1" as="geometry">
            <mxPoint as="offset" />
          </mxGeometry>
        </mxCell>
        <mxCell id="kTw_8mOHPsh5-s0pTxRM-20" value="type=’2‘?" style="strokeWidth=2;html=1;shape=mxgraph.flowchart.decision;whiteSpace=wrap;" vertex="1" parent="1">
          <mxGeometry x="660" y="450" width="100" height="100" as="geometry" />
        </mxCell>
        <mxCell id="kTw_8mOHPsh5-s0pTxRM-21" style="edgeStyle=orthogonalEdgeStyle;rounded=0;orthogonalLoop=1;jettySize=auto;html=1;entryX=0.5;entryY=0;entryDx=0;entryDy=0;entryPerimeter=0;" edge="1" parent="1" source="kTw_8mOHPsh5-s0pTxRM-5" target="kTw_8mOHPsh5-s0pTxRM-20">
          <mxGeometry relative="1" as="geometry" />
        </mxCell>
        <mxCell id="kTw_8mOHPsh5-s0pTxRM-31" value="否" style="edgeLabel;html=1;align=center;verticalAlign=middle;resizable=0;points=[];" vertex="1" connectable="0" parent="kTw_8mOHPsh5-s0pTxRM-21">
          <mxGeometry x="-0.2146" y="-1" relative="1" as="geometry">
            <mxPoint as="offset" />
          </mxGeometry>
        </mxCell>
        <mxCell id="kTw_8mOHPsh5-s0pTxRM-25" style="edgeStyle=orthogonalEdgeStyle;rounded=0;orthogonalLoop=1;jettySize=auto;html=1;exitX=1;exitY=0.5;exitDx=0;exitDy=0;exitPerimeter=0;entryX=0.5;entryY=0;entryDx=0;entryDy=0;" edge="1" parent="1" source="kTw_8mOHPsh5-s0pTxRM-20" target="kTw_8mOHPsh5-s0pTxRM-18">
          <mxGeometry relative="1" as="geometry">
            <mxPoint x="814" y="580" as="targetPoint" />
            <Array as="points">
              <mxPoint x="800" y="500" />
            </Array>
          </mxGeometry>
        </mxCell>
        <mxCell id="kTw_8mOHPsh5-s0pTxRM-33" value="否" style="edgeLabel;html=1;align=center;verticalAlign=middle;resizable=0;points=[];" vertex="1" connectable="0" parent="kTw_8mOHPsh5-s0pTxRM-25">
          <mxGeometry x="-0.5394" y="-2" relative="1" as="geometry">
            <mxPoint as="offset" />
          </mxGeometry>
        </mxCell>
        <mxCell id="kTw_8mOHPsh5-s0pTxRM-26" style="edgeStyle=orthogonalEdgeStyle;rounded=0;orthogonalLoop=1;jettySize=auto;html=1;entryX=0;entryY=0.5;entryDx=0;entryDy=0;entryPerimeter=0;" edge="1" parent="1" source="kTw_8mOHPsh5-s0pTxRM-6" target="kTw_8mOHPsh5-s0pTxRM-11">
          <mxGeometry relative="1" as="geometry">
            <Array as="points">
              <mxPoint x="430" y="730" />
            </Array>
          </mxGeometry>
        </mxCell>
        <mxCell id="kTw_8mOHPsh5-s0pTxRM-27" style="edgeStyle=orthogonalEdgeStyle;rounded=0;orthogonalLoop=1;jettySize=auto;html=1;entryX=0.5;entryY=0;entryDx=0;entryDy=0;entryPerimeter=0;" edge="1" parent="1" source="kTw_8mOHPsh5-s0pTxRM-7" target="kTw_8mOHPsh5-s0pTxRM-11">
          <mxGeometry relative="1" as="geometry" />
        </mxCell>
        <mxCell id="kTw_8mOHPsh5-s0pTxRM-28" style="edgeStyle=orthogonalEdgeStyle;rounded=0;orthogonalLoop=1;jettySize=auto;html=1;entryX=1;entryY=0.5;entryDx=0;entryDy=0;entryPerimeter=0;" edge="1" parent="1" source="kTw_8mOHPsh5-s0pTxRM-18" target="kTw_8mOHPsh5-s0pTxRM-11">
          <mxGeometry relative="1" as="geometry">
            <Array as="points">
              <mxPoint x="800" y="730" />
            </Array>
          </mxGeometry>
        </mxCell>
      </root>
    </mxGraphModel>
  </diagram>
</mxfile>
